<?xml version="1.0" encoding="UTF-8"?>
<svg xmlns="http://www.w3.org/2000/svg" xmlns:xlink="http://www.w3.org/1999/xlink" width="854" height="480" viewBox="0 0 854 480">
<defs>
<g>
<g id="glyph-0-0">
<path d="M 7.570312 -4.851562 L 5.945312 -4.851562 L 5.484375 -3.214844 L 7.179688 -3.214844 L 7.179688 -2.414062 L 5.257812 -2.414062 L 4.558594 0 L 3.839844 0 L 4.542969 -2.414062 L 3.121094 -2.414062 L 2.417969 0 L 1.699219 0 L 2.402344 -2.414062 L 1.003906 -2.414062 L 1.003906 -3.214844 L 2.625 -3.214844 L 3.09375 -4.851562 L 1.394531 -4.851562 L 1.394531 -5.652344 L 3.320312 -5.652344 L 4.003906 -8.007812 L 4.722656 -8.007812 L 4.035156 -5.652344 L 5.457031 -5.652344 L 6.144531 -8.007812 L 6.863281 -8.007812 L 6.175781 -5.652344 L 7.570312 -5.652344 L 7.570312 -4.851562 M 5.257812 -4.863281 L 3.804688 -4.863281 L 3.320312 -3.203125 L 4.769531 -3.203125 Z "/>
</g>
<g id="glyph-0-1">
<path d="M 6.550781 -0.117188 C 6.34375 -0.0429688 6.167969 0.015625 6.011719 0.0625 C 5.859375 0.105469 5.683594 0.128906 5.488281 0.128906 C 5.148438 0.128906 4.878906 0.0507812 4.679688 -0.105469 C 4.476562 -0.265625 4.347656 -0.496094 4.289062 -0.800781 L 4.25 -0.800781 C 3.96875 -0.488281 3.667969 -0.25 3.34375 -0.0859375 C 3.019531 0.0820312 2.628906 0.164062 2.175781 0.164062 C 1.691406 0.164062 1.296875 0.015625 0.984375 -0.28125 C 0.675781 -0.574219 0.519531 -0.960938 0.519531 -1.4375 C 0.519531 -1.6875 0.554688 -1.90625 0.625 -2.101562 C 0.695312 -2.296875 0.796875 -2.472656 0.9375 -2.628906 C 1.046875 -2.761719 1.1875 -2.875 1.367188 -2.976562 C 1.546875 -3.082031 1.710938 -3.160156 1.867188 -3.222656 C 2.0625 -3.296875 2.460938 -3.433594 3.054688 -3.632812 C 3.652344 -3.832031 4.054688 -3.988281 4.265625 -4.101562 L 4.265625 -4.746094 C 4.265625 -4.800781 4.253906 -4.910156 4.226562 -5.070312 C 4.203125 -5.230469 4.152344 -5.382812 4.074219 -5.527344 C 3.988281 -5.6875 3.867188 -5.828125 3.707031 -5.945312 C 3.550781 -6.066406 3.324219 -6.125 3.035156 -6.125 C 2.835938 -6.125 2.648438 -6.09375 2.476562 -6.023438 C 2.304688 -5.957031 2.183594 -5.886719 2.117188 -5.8125 C 2.117188 -5.726562 2.136719 -5.597656 2.179688 -5.429688 C 2.21875 -5.261719 2.238281 -5.105469 2.238281 -4.960938 C 2.238281 -4.808594 2.171875 -4.671875 2.035156 -4.542969 C 1.898438 -4.417969 1.707031 -4.355469 1.464844 -4.355469 C 1.246094 -4.355469 1.089844 -4.433594 0.984375 -4.585938 C 0.882812 -4.742188 0.832031 -4.914062 0.832031 -5.105469 C 0.832031 -5.304688 0.902344 -5.496094 1.046875 -5.675781 C 1.1875 -5.859375 1.371094 -6.023438 1.59375 -6.164062 C 1.789062 -6.285156 2.027344 -6.390625 2.304688 -6.472656 C 2.582031 -6.558594 2.855469 -6.601562 3.117188 -6.601562 C 3.484375 -6.601562 3.800781 -6.578125 4.070312 -6.527344 C 4.34375 -6.476562 4.589844 -6.371094 4.8125 -6.203125 C 5.03125 -6.042969 5.199219 -5.824219 5.316406 -5.550781 C 5.429688 -5.273438 5.488281 -4.917969 5.488281 -4.484375 C 5.488281 -3.863281 5.480469 -3.316406 5.46875 -2.835938 C 5.457031 -2.355469 5.449219 -1.832031 5.449219 -1.261719 C 5.449219 -1.09375 5.476562 -0.960938 5.535156 -0.859375 C 5.59375 -0.757812 5.6875 -0.675781 5.808594 -0.605469 C 5.871094 -0.566406 5.976562 -0.542969 6.117188 -0.539062 C 6.257812 -0.535156 6.402344 -0.535156 6.550781 -0.535156 L 6.550781 -0.117188 M 4.277344 -3.554688 C 3.910156 -3.445312 3.585938 -3.339844 3.308594 -3.234375 C 3.03125 -3.128906 2.769531 -3 2.53125 -2.84375 C 2.316406 -2.695312 2.144531 -2.519531 2.019531 -2.316406 C 1.890625 -2.117188 1.828125 -1.875 1.828125 -1.597656 C 1.828125 -1.234375 1.921875 -0.972656 2.113281 -0.800781 C 2.300781 -0.632812 2.542969 -0.546875 2.832031 -0.546875 C 3.140625 -0.546875 3.410156 -0.621094 3.644531 -0.773438 C 3.878906 -0.921875 4.078125 -1.097656 4.238281 -1.304688 Z "/>
</g>
<g id="glyph-0-2">
<path d="M 6.984375 -3.214844 C 6.984375 -2.253906 6.683594 -1.441406 6.074219 -0.789062 C 5.464844 -0.132812 4.761719 0.195312 3.957031 0.195312 C 3.605469 0.195312 3.261719 0.140625 2.917969 0.03125 C 2.578125 -0.0742188 2.257812 -0.222656 1.960938 -0.402344 L 1.476562 0.34375 L 1.074219 0.253906 C 1.097656 -0.0664062 1.109375 -0.453125 1.121094 -0.90625 C 1.128906 -1.359375 1.132812 -1.792969 1.132812 -2.214844 L 1.132812 -8.574219 C 1.132812 -8.722656 1.097656 -8.867188 1.03125 -9.015625 C 0.964844 -9.164062 0.878906 -9.269531 0.773438 -9.335938 C 0.691406 -9.390625 0.554688 -9.433594 0.359375 -9.460938 C 0.167969 -9.492188 0.0117188 -9.507812 -0.105469 -9.519531 L -0.105469 -9.933594 L 2.253906 -10.078125 L 2.34375 -9.980469 L 2.34375 -5.75 L 2.390625 -5.734375 C 2.660156 -6.023438 2.953125 -6.238281 3.269531 -6.378906 C 3.589844 -6.523438 3.902344 -6.59375 4.210938 -6.59375 C 5.003906 -6.59375 5.660156 -6.28125 6.191406 -5.65625 C 6.722656 -5.03125 6.984375 -4.21875 6.984375 -3.214844 M 5.625 -3.171875 C 5.625 -3.492188 5.589844 -3.820312 5.519531 -4.152344 C 5.453125 -4.488281 5.34375 -4.777344 5.195312 -5.027344 C 5.046875 -5.277344 4.855469 -5.480469 4.617188 -5.636719 C 4.378906 -5.792969 4.089844 -5.871094 3.757812 -5.871094 C 3.453125 -5.871094 3.1875 -5.8125 2.957031 -5.691406 C 2.730469 -5.574219 2.527344 -5.414062 2.34375 -5.207031 L 2.34375 -1.472656 C 2.371094 -1.367188 2.421875 -1.246094 2.496094 -1.105469 C 2.574219 -0.96875 2.675781 -0.835938 2.804688 -0.710938 C 2.9375 -0.589844 3.082031 -0.488281 3.25 -0.414062 C 3.414062 -0.335938 3.617188 -0.300781 3.855469 -0.300781 C 4.382812 -0.300781 4.8125 -0.554688 5.136719 -1.066406 C 5.460938 -1.578125 5.625 -2.28125 5.625 -3.171875 Z "/>
</g>
<g id="glyph-0-3">
<path d="M 3.476562 0 L 0.34375 0 L 0.34375 -0.429688 C 0.445312 -0.4375 0.550781 -0.449219 0.664062 -0.457031 C 0.777344 -0.46875 0.871094 -0.484375 0.945312 -0.507812 C 1.066406 -0.546875 1.15625 -0.617188 1.21875 -0.714844 C 1.277344 -0.8125 1.308594 -0.9375 1.308594 -1.09375 L 1.308594 -8.535156 C 1.308594 -8.691406 1.273438 -8.835938 1.207031 -8.972656 C 1.140625 -9.109375 1.050781 -9.21875 0.945312 -9.296875 C 0.867188 -9.347656 0.722656 -9.398438 0.515625 -9.441406 C 0.304688 -9.484375 0.140625 -9.507812 0.0117188 -9.519531 L 0.0117188 -9.933594 L 2.429688 -10.078125 L 2.519531 -9.980469 L 2.519531 -1.171875 C 2.519531 -1.019531 2.546875 -0.894531 2.605469 -0.796875 C 2.660156 -0.699219 2.75 -0.625 2.878906 -0.574219 C 2.972656 -0.53125 3.066406 -0.496094 3.160156 -0.476562 C 3.253906 -0.453125 3.359375 -0.4375 3.476562 -0.429688 Z "/>
</g>
<g id="glyph-0-4">
<path d="M 6.171875 -1.511719 C 5.902344 -1 5.542969 -0.589844 5.089844 -0.285156 C 4.640625 0.015625 4.121094 0.167969 3.535156 0.167969 C 3.019531 0.167969 2.566406 0.078125 2.179688 -0.105469 C 1.789062 -0.285156 1.46875 -0.535156 1.21875 -0.847656 C 0.964844 -1.160156 0.777344 -1.523438 0.652344 -1.941406 C 0.53125 -2.355469 0.46875 -2.796875 0.46875 -3.261719 C 0.46875 -3.679688 0.535156 -4.085938 0.667969 -4.488281 C 0.800781 -4.890625 0.992188 -5.25 1.25 -5.574219 C 1.496094 -5.882812 1.804688 -6.128906 2.171875 -6.316406 C 2.539062 -6.507812 2.949219 -6.601562 3.40625 -6.601562 C 3.875 -6.601562 4.273438 -6.527344 4.609375 -6.378906 C 4.945312 -6.234375 5.214844 -6.03125 5.421875 -5.773438 C 5.621094 -5.53125 5.769531 -5.246094 5.867188 -4.914062 C 5.964844 -4.585938 6.015625 -4.226562 6.015625 -3.839844 L 6.015625 -3.410156 L 1.765625 -3.410156 C 1.765625 -2.988281 1.804688 -2.605469 1.882812 -2.261719 C 1.964844 -1.917969 2.09375 -1.617188 2.265625 -1.355469 C 2.433594 -1.105469 2.65625 -0.90625 2.929688 -0.757812 C 3.203125 -0.613281 3.527344 -0.539062 3.90625 -0.539062 C 4.292969 -0.539062 4.625 -0.632812 4.90625 -0.8125 C 5.183594 -0.992188 5.457031 -1.320312 5.714844 -1.789062 L 6.171875 -1.511719 M 4.734375 -3.957031 C 4.734375 -4.199219 4.710938 -4.460938 4.671875 -4.738281 C 4.628906 -5.015625 4.5625 -5.246094 4.472656 -5.433594 C 4.371094 -5.628906 4.234375 -5.792969 4.0625 -5.917969 C 3.890625 -6.042969 3.664062 -6.105469 3.390625 -6.105469 C 2.9375 -6.105469 2.558594 -5.917969 2.257812 -5.539062 C 1.953125 -5.160156 1.789062 -4.632812 1.765625 -3.957031 Z "/>
</g>
</g>
</defs>
<g fill="rgb(100%, 100%, 100%)" fill-opacity="1">
<use xlink:href="#glyph-0-0" x="30" y="32.226562"/>
<use xlink:href="#glyph-0-0" x="39" y="32.226562"/>
<use xlink:href="#glyph-0-1" x="48" y="32.226562"/>
<use xlink:href="#glyph-0-2" x="55" y="32.226562"/>
<use xlink:href="#glyph-0-3" x="62" y="32.226562"/>
<use xlink:href="#glyph-0-4" x="66" y="32.226562"/>
</g>
</svg>
